<mxfile host="app.diagrams.net" modified="2023-04-20T02:39:51.268Z" agent="Mozilla/5.0 (Windows NT 10.0; Win64; x64) AppleWebKit/537.36 (KHTML, like Gecko) Chrome/112.0.0.0 Safari/537.36" etag="hVwEUbs33vslwxfJUVah" version="21.1.9" type="github">
  <diagram id="C5RBs43oDa-KdzZeNtuy" name="Page-1">
    <mxGraphModel dx="1420" dy="750" grid="1" gridSize="10" guides="1" tooltips="1" connect="1" arrows="1" fold="1" page="1" pageScale="1" pageWidth="827" pageHeight="1169" math="0" shadow="0">
      <root>
        <mxCell id="WIyWlLk6GJQsqaUBKTNV-0" />
        <mxCell id="WIyWlLk6GJQsqaUBKTNV-1" parent="WIyWlLk6GJQsqaUBKTNV-0" />
        <mxCell id="8jzJQ11-NJ104oRO7Ddy-0" value="" style="html=1;shadow=0;align=center;verticalAlign=middle;shape=mxgraph.arrows2.arrow;dy=0.6;dx=40;direction=north;notch=0;strokeColor=default;" vertex="1" parent="WIyWlLk6GJQsqaUBKTNV-1">
          <mxGeometry x="230" y="880" width="230" height="90" as="geometry" />
        </mxCell>
        <mxCell id="8jzJQ11-NJ104oRO7Ddy-1" value="" style="rounded=0;whiteSpace=wrap;html=1;fillColor=#e1d5e7;fillStyle=auto;strokeColor=#9673a6;opacity=50;" vertex="1" parent="WIyWlLk6GJQsqaUBKTNV-1">
          <mxGeometry x="40" y="40" width="760" height="690" as="geometry" />
        </mxCell>
        <mxCell id="8jzJQ11-NJ104oRO7Ddy-2" value="系统模块层次图" style="rounded=0;whiteSpace=wrap;html=1;fillColor=none;strokeColor=none;fontSize=30;fontStyle=1;fontFamily=微软雅黑;" vertex="1" parent="WIyWlLk6GJQsqaUBKTNV-1">
          <mxGeometry x="40" y="43" width="760" height="47" as="geometry" />
        </mxCell>
        <mxCell id="8jzJQ11-NJ104oRO7Ddy-3" value="系统主业务平台" style="rounded=0;whiteSpace=wrap;html=1;fillColor=#d5e8d4;strokeColor=#82b366;fontSize=25;fontStyle=1;fontFamily=微软雅黑;" vertex="1" parent="WIyWlLk6GJQsqaUBKTNV-1">
          <mxGeometry x="80" y="100" width="680" height="47" as="geometry" />
        </mxCell>
        <mxCell id="8jzJQ11-NJ104oRO7Ddy-7" value="" style="html=1;shadow=0;dashed=0;align=center;verticalAlign=middle;shape=mxgraph.arrows2.calloutArrow;dy=23;dx=21;notch=108;arrowHead=29;fillColor=#ffe6cc;strokeColor=#d79b00;" vertex="1" parent="WIyWlLk6GJQsqaUBKTNV-1">
          <mxGeometry x="80" y="180" width="160" height="290" as="geometry" />
        </mxCell>
        <mxCell id="8jzJQ11-NJ104oRO7Ddy-8" value="数据存储" style="text;html=1;strokeColor=none;fillColor=none;align=center;verticalAlign=middle;whiteSpace=wrap;rounded=0;fontFamily=微软雅黑;" vertex="1" parent="WIyWlLk6GJQsqaUBKTNV-1">
          <mxGeometry x="105" y="180" width="60" height="30" as="geometry" />
        </mxCell>
        <mxCell id="8jzJQ11-NJ104oRO7Ddy-9" value="系统参数" style="strokeWidth=2;html=1;shape=mxgraph.flowchart.database;whiteSpace=wrap;fillColor=#6d8764;strokeColor=#3A5431;fontColor=#FFFFFF;" vertex="1" parent="WIyWlLk6GJQsqaUBKTNV-1">
          <mxGeometry x="100" y="220" width="70" height="30" as="geometry" />
        </mxCell>
        <mxCell id="8jzJQ11-NJ104oRO7Ddy-10" value="业务数据库" style="strokeWidth=2;html=1;shape=mxgraph.flowchart.database;whiteSpace=wrap;fillColor=#6d8764;strokeColor=#3A5431;fontColor=#FFFFFF;" vertex="1" parent="WIyWlLk6GJQsqaUBKTNV-1">
          <mxGeometry x="100" y="270" width="70" height="30" as="geometry" />
        </mxCell>
        <mxCell id="8jzJQ11-NJ104oRO7Ddy-11" value="规划参数" style="strokeWidth=2;html=1;shape=mxgraph.flowchart.database;whiteSpace=wrap;fillColor=#6d8764;strokeColor=#3A5431;fontColor=#FFFFFF;" vertex="1" parent="WIyWlLk6GJQsqaUBKTNV-1">
          <mxGeometry x="100" y="320" width="70" height="30" as="geometry" />
        </mxCell>
        <mxCell id="8jzJQ11-NJ104oRO7Ddy-12" value="其他数据" style="strokeWidth=2;html=1;shape=mxgraph.flowchart.database;whiteSpace=wrap;fillColor=#6d8764;strokeColor=#3A5431;fontColor=#FFFFFF;" vertex="1" parent="WIyWlLk6GJQsqaUBKTNV-1">
          <mxGeometry x="100" y="370" width="70" height="30" as="geometry" />
        </mxCell>
        <mxCell id="8jzJQ11-NJ104oRO7Ddy-13" value="备份数据" style="strokeWidth=2;html=1;shape=mxgraph.flowchart.database;whiteSpace=wrap;fillColor=#6d8764;strokeColor=#3A5431;fontColor=#FFFFFF;" vertex="1" parent="WIyWlLk6GJQsqaUBKTNV-1">
          <mxGeometry x="100" y="420" width="70" height="30" as="geometry" />
        </mxCell>
      </root>
    </mxGraphModel>
  </diagram>
</mxfile>
